<?xml version="1.0" encoding="utf-8"?>
<!-- Generator: Adobe Illustrator 22.0.0, SVG Export Plug-In . SVG Version: 6.00 Build 0)  -->
<svg version="1.0" id="Layer_1" xmlns="http://www.w3.org/2000/svg" xmlns:xlink="http://www.w3.org/1999/xlink" x="0px" y="0px"
	 viewBox="0 0 176.9 36.6" style="enable-background:new 0 0 176.9 36.6;" xml:space="preserve">
<style type="text/css">
	.st0{fill:#005D98;}
	.st1{clip-path:url(#SVGID_2_);fill:url(#SVGID_3_);}
	.st2{clip-path:url(#SVGID_5_);fill:url(#SVGID_6_);}
	.st3{clip-path:url(#SVGID_8_);fill:url(#SVGID_9_);}
	.st4{clip-path:url(#SVGID_11_);fill:url(#SVGID_12_);}
	.st5{clip-path:url(#SVGID_14_);}
	.st6{filter:url(#Adobe_OpacityMaskFilter);}
	.st7{clip-path:url(#SVGID_16_);fill:url(#SVGID_18_);}
	.st8{clip-path:url(#SVGID_16_);mask:url(#SVGID_17_);fill:url(#SVGID_19_);}
	.st9{clip-path:url(#SVGID_21_);fill:url(#SVGID_22_);}
	.st10{clip-path:url(#SVGID_24_);fill:url(#SVGID_25_);}
	.st11{clip-path:url(#SVGID_27_);}
	.st12{filter:url(#Adobe_OpacityMaskFilter_1_);}
	.st13{clip-path:url(#SVGID_29_);fill:url(#SVGID_31_);}
	.st14{clip-path:url(#SVGID_29_);mask:url(#SVGID_30_);fill:url(#SVGID_32_);}
</style>
<g>
	<path class="st0" d="M26.9,24c0.1,0.1,0.1,0.1,0.2,0.2l0.4,0.4L26.9,24z"/>
	<polygon class="st0" points="123.8,17.7 129.2,17.7 129.2,22.9 134,17.7 141.5,17.7 135.7,24.2 141.7,35.4 135,35.4 131.5,28.7 
		129.2,31.4 129.2,35.4 123.8,35.4 	"/>
	<polygon class="st0" points="102.9,17.7 107.8,17.7 115.8,27.6 115.8,17.7 121.1,17.7 121.1,35.4 115.8,35.4 108.2,26 108.2,35.4 
		102.9,35.4 	"/>
	<polygon class="st0" points="5.5,22.1 13.3,22.1 13.3,17.7 0,17.7 0,35.4 13.3,35.4 13.3,31 5.5,31 5.5,28.8 11.9,28.8 11.9,24.3 
		5.5,24.3 5.5,24.3 	"/>
	<path class="st0" d="M66,17.7h10.2c1.7,0,3,0.4,3.9,1.3c0.9,0.8,1.4,1.9,1.4,3.1c0,1-0.3,1.9-1,2.7c-0.4,0.5-1.1,0.9-1.9,1.2
		c1.3,0.3,2.2,0.8,2.8,1.6c0.6,0.7,0.9,1.7,0.9,2.8c0,0.9-0.2,1.7-0.6,2.5c-0.4,0.7-1,1.3-1.7,1.7c-0.5,0.3-1.1,0.5-2.1,0.6
		c-1.2,0.2-2,0.2-2.4,0.2H66V17.7z M71.5,24.6h2.4c0.9,0,1.4-0.1,1.8-0.4c0.3-0.3,0.5-0.7,0.5-1.3c0-0.5-0.2-0.9-0.5-1.2
		c-0.3-0.3-0.9-0.4-1.7-0.4h-2.4V24.6z M71.5,31.6h2.8c0.9,0,1.6-0.2,2-0.5c0.4-0.3,0.6-0.8,0.6-1.3c0-0.5-0.2-0.9-0.6-1.3
		c-0.4-0.3-1-0.5-2-0.5h-2.8V31.6z"/>
	<path class="st0" d="M95,32.5h-6.2l-0.9,2.9h-5.6L89,17.7h6l6.6,17.7h-5.7L95,32.5z M93.8,28.6l-1.9-6.4L90,28.6H93.8z"/>
	<rect x="35.4" y="17.7" class="st0" width="5.5" height="17.7"/>
	<polygon class="st0" points="63.4,17.7 57.9,17.7 56.2,17.7 53.4,26.6 50.7,17.7 49,17.7 43.5,17.7 43.5,17.7 43.5,35.4 43.5,35.4 
		48,35.4 49,35.4 49,26.5 51.4,35.4 55.5,35.4 57.9,26.5 57.9,35.4 58.9,35.4 63.4,35.4 63.4,35.4 63.4,17.7 	"/>
	<path class="st0" d="M34,32.3C34,32.3,34,32.3,34,32.3L34,32.3C34,32.2,34,32.2,34,32.3l-3.5-3.5c-0.4-0.5-0.8-1.4-0.8-2.2
		c0-0.9,0.4-1.8,1-2.5l3.3-3.3c0,0,0,0,0,0c0,0,0-0.1,0-0.1c0,0,0-0.1,0-0.1c0,0,0,0,0,0l0,0c0,0,0,0,0,0l-3.6-3.6c0,0-0.1,0-0.1,0
		c0,0-0.1,0-0.1,0l-3.2,3.3l-2.1,2.1c0.9,0.9,1.5,1.5,1.5,1.5c1,1.1,1.2,1.8,1.2,2.8c0,1.2-0.5,2.1-1.4,2.9l-1.3,1.3
		c2.1,2.1,5.4,5.4,5.4,5.4c0,0,0.1,0,0.1,0c0,0,0.1,0,0.1,0c0,0,3-3,3.6-3.6c0,0,0,0,0,0C34,32.4,34,32.4,34,32.3
		C34,32.3,34,32.3,34,32.3"/>
	<g>
		<defs>
			<path id="SVGID_1_" d="M18.2,24.2C18.2,24.2,18.2,24.2,18.2,24.2C18.2,24.2,18.2,24.2,18.2,24.2 M18.2,24.2L18.2,24.2 M18.2,24.2
				C18.2,24.2,18.2,24.2,18.2,24.2C18.2,24.2,18.2,24.2,18.2,24.2 M18.1,24.2C18.2,24.2,18.2,24.2,18.1,24.2
				C18.2,24.2,18.2,24.2,18.1,24.2 M18.1,24.2C18.1,24.2,18.1,24.2,18.1,24.2C18.1,24.2,18.1,24.2,18.1,24.2 M18.1,24.2
				C18.1,24.2,18.1,24.2,18.1,24.2C18.1,24.2,18.1,24.2,18.1,24.2 M18.1,24.2C18.1,24.2,18.1,24.2,18.1,24.2
				C18.1,24.2,18.1,24.2,18.1,24.2 M18.1,24.2C18.1,24.2,18.1,24.2,18.1,24.2C18.1,24.2,18.1,24.2,18.1,24.2 M18.1,24.2L18.1,24.2
				 M18.3,16.9c0,0-3,3-3.6,3.6c0,0,0,0,0,0c0,0,0,0.1,0,0.1c0,0,0,0.1,0,0.1c0,0,0,0,0,0l0,0c0,0,0,0,0,0l3.5,3.5
				c0.4,0.5,0.8,1.4,0.8,2.2c0,0.9-0.4,1.8-1,2.5c0,0,5.8-4.5,3.5-9.2c-0.5-0.5-2.9-2.9-2.9-2.9c0,0-0.1,0-0.1,0
				C18.4,16.8,18.3,16.8,18.3,16.9"/>
		</defs>
		<clipPath id="SVGID_2_">
			<use xlink:href="#SVGID_1_"  style="overflow:visible;"/>
		</clipPath>
		
			<linearGradient id="SVGID_3_" gradientUnits="userSpaceOnUse" x1="-155.8105" y1="214.3092" x2="-155.4175" y2="214.3092" gradientTransform="matrix(-14.3919 -6.1907 -6.1907 14.3919 -893.3044 -4024.6099)">
			<stop  offset="0" style="stop-color:#153A63"/>
			<stop  offset="0.35" style="stop-color:#153A63"/>
			<stop  offset="1" style="stop-color:#005D98"/>
		</linearGradient>
		<polygon class="st1" points="22.3,32.3 10.2,27.1 16,13.5 28.1,18.7 		"/>
	</g>
	<path class="st0" d="M25.7,24c0,0-3-3-4.3-4.3c2,4.6-2.8,8.6-3.5,9.2l-3.3,3.3c0,0,0,0,0,0c0,0,0,0.1,0,0.1c0,0,0,0.1,0,0.1
		c0,0,0,0,0,0l0,0c0,0,0,0,0,0l3.6,3.6c0,0,0.1,0,0.1,0c0,0,0.1,0,0.1,0l3.3-3.3l3.7-3.7c0.8-0.8,1.2-1.5,1.2-2.6
		C26.7,25.6,26.6,25,25.7,24"/>
	<g>
		<defs>
			<path id="SVGID_4_" d="M163.1,26.5c0,0,1.6,0,1.6,0V0.1c0,0-1.6,0-1.6,0V26.5z"/>
		</defs>
		<clipPath id="SVGID_5_">
			<use xlink:href="#SVGID_4_"  style="overflow:visible;"/>
		</clipPath>
		
			<linearGradient id="SVGID_6_" gradientUnits="userSpaceOnUse" x1="-152.9073" y1="222.3431" x2="-152.5143" y2="222.3431" gradientTransform="matrix(0 -67.1825 -67.1825 0 15101.3955 -10246.2295)">
			<stop  offset="0" style="stop-color:#153A63"/>
			<stop  offset="0.1" style="stop-color:#153A63"/>
			<stop  offset="0.35" style="stop-color:#23A8E0"/>
			<stop  offset="0.5" style="stop-color:#61CAF4"/>
			<stop  offset="0.65" style="stop-color:#109CD8"/>
			<stop  offset="0.9" style="stop-color:#153A63"/>
			<stop  offset="1" style="stop-color:#153A63"/>
		</linearGradient>
		<rect x="163.1" y="0.1" class="st2" width="1.6" height="26.4"/>
	</g>
	<g>
		<defs>
			<path id="SVGID_7_" d="M163.1,0L163.1,0l-0.1,2.7c0.3-1.3,1.6-1.1,1.6-1.1c5.3,0.3,9.6,4.2,10.6,9.2c0,0,0.1,0.4,0.1,0.6
				c0,1.2-0.9,2.2-2,2.3c3.4-0.1,3.6-2.5,3.5-2.9c-1.1-5.9-6.1-10.5-12.3-10.8l-0.7,0H163.1z"/>
		</defs>
		<clipPath id="SVGID_8_">
			<use xlink:href="#SVGID_7_"  style="overflow:visible;"/>
		</clipPath>
		
			<linearGradient id="SVGID_9_" gradientUnits="userSpaceOnUse" x1="-157.1837" y1="218.4182" x2="-156.7907" y2="218.4182" gradientTransform="matrix(35.3343 27.6807 27.6807 -35.3343 -329.537 12069.5977)">
			<stop  offset="0" style="stop-color:#005D98"/>
			<stop  offset="0.3495" style="stop-color:#23A8E0"/>
			<stop  offset="0.5301" style="stop-color:#61CAF4"/>
			<stop  offset="0.6206" style="stop-color:#3FB6E8"/>
			<stop  offset="0.7082" style="stop-color:#25A8DF"/>
			<stop  offset="0.7872" style="stop-color:#159FDA"/>
			<stop  offset="0.85" style="stop-color:#109CD8"/>
			<stop  offset="0.8723" style="stop-color:#1096D1"/>
			<stop  offset="0.9052" style="stop-color:#1185BD"/>
			<stop  offset="0.9448" style="stop-color:#136A9C"/>
			<stop  offset="0.989" style="stop-color:#14446F"/>
			<stop  offset="1" style="stop-color:#153A63"/>
		</linearGradient>
		<polygon class="st3" points="168.3,-6.7 183.6,5.2 171.6,20.5 156.4,8.5 		"/>
	</g>
	<g>
		<defs>
			<path id="SVGID_10_" d="M173.1,13.7h-7.6v12.7c6.4-0.8,11.4-6.1,11.6-12.7v0v0c0-0.2,0-0.3,0-0.5c0-0.8-0.1-1.6-0.2-2.4
				C176.9,10.8,177,13.7,173.1,13.7"/>
		</defs>
		<clipPath id="SVGID_11_">
			<use xlink:href="#SVGID_10_"  style="overflow:visible;"/>
		</clipPath>
		
			<linearGradient id="SVGID_12_" gradientUnits="userSpaceOnUse" x1="-152.1346" y1="215.5883" x2="-151.7416" y2="215.5883" gradientTransform="matrix(-23.5619 28.8561 28.8561 23.5619 -9630.377 -675.899)">
			<stop  offset="0" style="stop-color:#19BAED"/>
			<stop  offset="0.4147" style="stop-color:#0D8EC9"/>
			<stop  offset="0.7949" style="stop-color:#046BAD"/>
			<stop  offset="1" style="stop-color:#005EA3"/>
		</linearGradient>
		<polygon class="st4" points="184.7,17 172.5,32.1 157.9,20.1 170.1,5.1 		"/>
	</g>
	<g>
		<g>
			<defs>
				<rect id="SVGID_13_" x="165.5" y="10.8" width="11.6" height="15.6"/>
			</defs>
			<clipPath id="SVGID_14_">
				<use xlink:href="#SVGID_13_"  style="overflow:visible;"/>
			</clipPath>
			<g class="st5">
				<defs>
					<path id="SVGID_15_" d="M165.5,26.4c6.4-0.8,11.4-6.1,11.6-12.7v0v0c0-0.2,0-0.3,0-0.5c0-0.8-0.1-1.6-0.2-2.4
						c0,0,0.1,2.9-3.8,2.9h-7.6V26.4z"/>
				</defs>
				<clipPath id="SVGID_16_">
					<use xlink:href="#SVGID_15_"  style="overflow:visible;"/>
				</clipPath>
				<defs>
					<filter id="Adobe_OpacityMaskFilter" filterUnits="userSpaceOnUse" x="165.5" y="10.8" width="11.6" height="15.6">
						<feColorMatrix  type="matrix" values="1 0 0 0 0  0 1 0 0 0  0 0 1 0 0  0 0 0 1 0"/>
					</filter>
				</defs>
				<mask maskUnits="userSpaceOnUse" x="165.5" y="10.8" width="11.6" height="15.6" id="SVGID_17_">
					<g class="st6">
						
							<radialGradient id="SVGID_18_" cx="-158.6411" cy="221.5607" r="0.393" gradientTransform="matrix(33.8837 0 0 -33.904 5539.0981 7525.1328)" gradientUnits="userSpaceOnUse">
							<stop  offset="0" style="stop-color:#020202"/>
							<stop  offset="0.85" style="stop-color:#000000"/>
							<stop  offset="1" style="stop-color:#FFFFFF"/>
						</radialGradient>
						<rect x="165.5" y="10.8" class="st7" width="11.6" height="15.6"/>
					</g>
				</mask>
				
					<radialGradient id="SVGID_19_" cx="-158.6399" cy="221.5607" r="0.393" gradientTransform="matrix(33.8837 0 0 -33.904 5539.0571 7525.1328)" gradientUnits="userSpaceOnUse">
					<stop  offset="0" style="stop-color:#FFFFFF"/>
					<stop  offset="0.85" style="stop-color:#FFFFFF"/>
					<stop  offset="1" style="stop-color:#FFFFFF"/>
				</radialGradient>
				<rect x="165.5" y="10.8" class="st8" width="11.6" height="15.6"/>
			</g>
		</g>
	</g>
	<g>
		<defs>
			<path id="SVGID_20_" d="M150.8,15.7c1.1,5.9,6.1,10.5,12.3,10.8l0.7,0h0.7l0.1,0v-2.7c-0.3,1.3-1.6,1.1-1.6,1.1
				c-5.3-0.3-9.6-4.2-10.6-9.2c0,0-0.1-0.4-0.1-0.6c0-1.2,0.9-2.2,2-2.3C150.9,12.9,150.8,15.2,150.8,15.7"/>
		</defs>
		<clipPath id="SVGID_21_">
			<use xlink:href="#SVGID_20_"  style="overflow:visible;"/>
		</clipPath>
		
			<linearGradient id="SVGID_22_" gradientUnits="userSpaceOnUse" x1="-150.2168" y1="220.9044" x2="-149.8238" y2="220.9044" gradientTransform="matrix(-35.3345 -27.6809 -27.6809 35.3345 972.2088 -11938.126)">
			<stop  offset="0" style="stop-color:#005D98"/>
			<stop  offset="0.3495" style="stop-color:#23A8E0"/>
			<stop  offset="0.5301" style="stop-color:#61CAF4"/>
			<stop  offset="0.6206" style="stop-color:#3FB6E8"/>
			<stop  offset="0.7082" style="stop-color:#25A8DF"/>
			<stop  offset="0.7872" style="stop-color:#159FDA"/>
			<stop  offset="0.85" style="stop-color:#109CD8"/>
			<stop  offset="0.8723" style="stop-color:#1096D1"/>
			<stop  offset="0.9052" style="stop-color:#1185BD"/>
			<stop  offset="0.9448" style="stop-color:#136A9C"/>
			<stop  offset="0.989" style="stop-color:#14446F"/>
			<stop  offset="1" style="stop-color:#153A63"/>
		</linearGradient>
		<polygon class="st9" points="159.3,33.3 144.1,21.3 156,6 171.3,18 		"/>
	</g>
	<g>
		<defs>
			<path id="SVGID_23_" d="M150.6,12.8L150.6,12.8L150.6,12.8c0,0.2,0,0.3,0,0.5c0,0.8,0.1,1.6,0.2,2.4c0,0-0.1-2.9,3.8-2.9h7.6V0.2
				C155.8,1,150.8,6.3,150.6,12.8"/>
		</defs>
		<clipPath id="SVGID_24_">
			<use xlink:href="#SVGID_23_"  style="overflow:visible;"/>
		</clipPath>
		
			<linearGradient id="SVGID_25_" gradientUnits="userSpaceOnUse" x1="-155.2883" y1="223.9026" x2="-154.8953" y2="223.9026" gradientTransform="matrix(23.5623 -28.8566 -28.8566 -23.5623 10272.4521 807.3413)">
			<stop  offset="0" style="stop-color:#19BAED"/>
			<stop  offset="0.4147" style="stop-color:#0D8EC9"/>
			<stop  offset="0.7949" style="stop-color:#046BAD"/>
			<stop  offset="1" style="stop-color:#005EA3"/>
		</linearGradient>
		<polygon class="st10" points="142.9,9.5 155.2,-5.5 169.8,6.4 157.5,21.4 		"/>
	</g>
	<g>
		<g>
			<defs>
				<rect id="SVGID_26_" x="150.6" y="0.2" width="11.6" height="15.6"/>
			</defs>
			<clipPath id="SVGID_27_">
				<use xlink:href="#SVGID_26_"  style="overflow:visible;"/>
			</clipPath>
			<g class="st11">
				<defs>
					<path id="SVGID_28_" d="M162.2,0.2c-6.4,0.8-11.4,6.1-11.6,12.7v0v0c0,0.2,0,0.3,0,0.5c0,0.8,0.1,1.6,0.2,2.4
						c0,0-0.1-2.9,3.8-2.9h7.6V0.2z"/>
				</defs>
				<clipPath id="SVGID_29_">
					<use xlink:href="#SVGID_28_"  style="overflow:visible;"/>
				</clipPath>
				<defs>
					<filter id="Adobe_OpacityMaskFilter_1_" filterUnits="userSpaceOnUse" x="150.6" y="0.2" width="11.6" height="15.6">
						<feColorMatrix  type="matrix" values="1 0 0 0 0  0 1 0 0 0  0 0 1 0 0  0 0 0 1 0"/>
					</filter>
				</defs>
				<mask maskUnits="userSpaceOnUse" x="150.6" y="0.2" width="11.6" height="15.6" id="SVGID_30_">
					<g class="st12">
						
							<radialGradient id="SVGID_31_" cx="-149.3672" cy="218.4436" r="0.393" gradientTransform="matrix(-33.8842 0 0 33.9045 -4897.2695 -7393.0137)" gradientUnits="userSpaceOnUse">
							<stop  offset="0" style="stop-color:#020202"/>
							<stop  offset="0.85" style="stop-color:#000000"/>
							<stop  offset="1" style="stop-color:#FFFFFF"/>
						</radialGradient>
						<rect x="150.6" y="0.2" class="st13" width="11.6" height="15.6"/>
					</g>
				</mask>
				
					<radialGradient id="SVGID_32_" cx="-149.366" cy="218.4445" r="0.393" gradientTransform="matrix(-33.8842 0 0 33.9045 -4897.2285 -7393.0454)" gradientUnits="userSpaceOnUse">
					<stop  offset="0" style="stop-color:#FFFFFF"/>
					<stop  offset="0.85" style="stop-color:#FFFFFF"/>
					<stop  offset="1" style="stop-color:#FFFFFF"/>
				</radialGradient>
				<rect x="150.6" y="0.2" class="st14" width="11.6" height="15.6"/>
			</g>
		</g>
	</g>
</g>
</svg>
