<svg width="40" height="40" viewBox="0 0 40 40" fill="none" xmlns="http://www.w3.org/2000/svg">
<path d="M29.3667 17.9163C28.65 17.9163 28.0833 17.333 28.0833 16.633C28.0833 16.0163 27.4667 14.733 26.4333 13.6163C25.4167 12.533 24.3 11.8997 23.3667 11.8997C22.65 11.8997 22.0833 11.3163 22.0833 10.6163C22.0833 9.91634 22.6667 9.33301 23.3667 9.33301C25.0333 9.33301 26.7833 10.233 28.3167 11.8497C29.75 13.3663 30.6667 15.2497 30.6667 16.6163C30.6667 17.333 30.0833 17.9163 29.3667 17.9163Z" fill="#0098CE"/>
<path d="M35.3833 17.9163C34.6667 17.9163 34.1 17.333 34.1 16.633C34.1 10.7163 29.2833 5.91634 23.3833 5.91634C22.6667 5.91634 22.1 5.33301 22.1 4.63301C22.1 3.93301 22.6667 3.33301 23.3667 3.33301C30.7 3.33301 36.6667 9.29967 36.6667 16.633C36.6667 17.333 36.0833 17.9163 35.3833 17.9163Z" fill="#0098CE"/>
<path opacity="0.4" d="M19.65 23.683L14.2 29.133C13.6 28.5997 13.0167 28.0497 12.45 27.483C10.7333 25.7497 9.18333 23.933 7.79999 22.033C6.43333 20.133 5.33333 18.233 4.53333 16.3497C3.73333 14.4497 3.33333 12.633 3.33333 10.8997C3.33333 9.76634 3.53333 8.68301 3.93333 7.68301C4.33333 6.66634 4.96666 5.73301 5.84999 4.89967C6.91666 3.84967 8.08333 3.33301 9.31666 3.33301C9.78333 3.33301 10.25 3.43301 10.6667 3.63301C11.1 3.83301 11.4833 4.13301 11.7833 4.56634L15.65 10.0163C15.95 10.433 16.1667 10.8163 16.3167 11.183C16.4667 11.533 16.55 11.883 16.55 12.1997C16.55 12.5997 16.4333 12.9997 16.2 13.383C15.9833 13.7663 15.6667 14.1663 15.2667 14.5663L14 15.883C13.8167 16.0663 13.7333 16.283 13.7333 16.5497C13.7333 16.683 13.75 16.7997 13.7833 16.933C13.8333 17.0663 13.8833 17.1663 13.9167 17.2663C14.2167 17.8163 14.7333 18.533 15.4667 19.3997C16.2167 20.2663 17.0167 21.1497 17.8833 22.033C18.4833 22.6163 19.0667 23.183 19.65 23.683Z" fill="#0098CE"/>
<path d="M36.6167 30.5504C36.6167 31.0171 36.5333 31.5004 36.3667 31.9671C36.3167 32.1004 36.2667 32.2337 36.2 32.3671C35.9167 32.9671 35.55 33.5337 35.0667 34.0671C34.25 34.9671 33.35 35.6171 32.3333 36.0337C32.3167 36.0337 32.3 36.0504 32.2833 36.0504C31.3 36.4504 30.2333 36.6671 29.0833 36.6671C27.3833 36.6671 25.5667 36.2671 23.65 35.4504C21.7333 34.6337 19.8167 33.5337 17.9167 32.1504C17.2667 31.6671 16.6167 31.1837 16 30.6671L21.45 25.2171C21.9167 25.5671 22.3333 25.8337 22.6833 26.0171C22.7667 26.0504 22.8667 26.1004 22.9833 26.1504C23.1167 26.2004 23.25 26.2171 23.4 26.2171C23.6833 26.2171 23.9 26.1171 24.0833 25.9337L25.35 24.6837C25.7667 24.2671 26.1667 23.9504 26.55 23.7504C26.9333 23.5171 27.3167 23.4004 27.7333 23.4004C28.05 23.4004 28.3833 23.4671 28.75 23.6171C29.1167 23.7671 29.5 23.9837 29.9167 24.2671L35.4333 28.1837C35.8667 28.4837 36.1667 28.8337 36.35 29.2504C36.5167 29.6671 36.6167 30.0837 36.6167 30.5504Z" fill="#0098CE"/>
</svg>
