<svg width="40" height="40" viewBox="0 0 40 40" fill="none" xmlns="http://www.w3.org/2000/svg">
<path opacity="0.4" d="M36.6666 15V27.4333C36.6666 31.25 33.5666 34.3333 29.75 34.3333H10.25C6.43331 34.3333 3.33331 31.25 3.33331 27.4333V15H36.6666Z" fill="#0098CE"/>
<path d="M36.6666 12.567V15.0003H3.33331V12.567C3.33331 8.75033 6.43331 5.66699 10.25 5.66699H29.75C33.5666 5.66699 36.6666 8.75033 36.6666 12.567Z" fill="#0098CE"/>
<path d="M13.3333 28.75H10C9.31667 28.75 8.75 28.1833 8.75 27.5C8.75 26.8167 9.31667 26.25 10 26.25H13.3333C14.0167 26.25 14.5833 26.8167 14.5833 27.5C14.5833 28.1833 14.0167 28.75 13.3333 28.75Z" fill="#0098CE"/>
<path d="M24.1667 28.75H17.5C16.8167 28.75 16.25 28.1833 16.25 27.5C16.25 26.8167 16.8167 26.25 17.5 26.25H24.1667C24.85 26.25 25.4167 26.8167 25.4167 27.5C25.4167 28.1833 24.85 28.75 24.1667 28.75Z" fill="#0098CE"/>
</svg>
