<svg width="24" height="24" viewBox="0 0 24 24" fill="none" xmlns="http://www.w3.org/2000/svg">
<path opacity="0.4" d="M16.8 9H7.2C4 9 2 11 2 14.2V16.79C2 20 4 22 7.2 22H16.79C19.99 22 21.99 20 21.99 16.8V14.2C22 11 20 9 16.8 9Z" fill="#0098CE"/>
<path d="M15.88 12.43L12.53 15.78C12.24 16.07 11.76 16.07 11.47 15.78L8.11997 12.43C7.82997 12.14 7.82997 11.66 8.11997 11.37C8.40997 11.08 8.88997 11.08 9.17997 11.37L11.25 13.44V2.75C11.25 2.34 11.59 2 12 2C12.41 2 12.75 2.34 12.75 2.75V13.44L14.82 11.37C14.97 11.22 15.16 11.15 15.35 11.15C15.54 11.15 15.73 11.22 15.88 11.37C16.18 11.66 16.18 12.13 15.88 12.43Z" fill="#0098CE"/>
</svg>
