<svg width="40" height="40" viewBox="0 0 40 40" fill="none" xmlns="http://www.w3.org/2000/svg">
<path opacity="0.4" d="M28.3333 30.7165H21.6666L14.25 35.6498C13.15 36.3832 11.6666 35.5998 11.6666 34.2665V30.7165C6.66665 30.7165 3.33331 27.3831 3.33331 22.3831V12.3831C3.33331 7.38314 6.66665 4.0498 11.6666 4.0498H28.3333C33.3333 4.0498 36.6666 7.38314 36.6666 12.3831V22.3831C36.6666 27.3831 33.3333 30.7165 28.3333 30.7165Z" fill="#0098CE"/>
<path d="M20 20.1836C19.3167 20.1836 18.75 19.6169 18.75 18.9336V18.5837C18.75 16.6503 20.1667 15.7003 20.7 15.3336C21.3167 14.917 21.5166 14.6337 21.5166 14.2003C21.5166 13.367 20.8334 12.6836 20 12.6836C19.1667 12.6836 18.4834 13.367 18.4834 14.2003C18.4834 14.8837 17.9167 15.4503 17.2334 15.4503C16.5501 15.4503 15.9834 14.8837 15.9834 14.2003C15.9834 11.9837 17.7834 10.1836 20 10.1836C22.2167 10.1836 24.0166 11.9837 24.0166 14.2003C24.0166 16.1003 22.6167 17.0503 22.1 17.4003C21.45 17.8336 21.25 18.117 21.25 18.5837V18.9336C21.25 19.6336 20.6834 20.1836 20 20.1836Z" fill="#0098CE"/>
<path d="M20 24.333C19.3 24.333 18.75 23.7663 18.75 23.083C18.75 22.3997 19.3167 21.833 20 21.833C20.6833 21.833 21.25 22.3997 21.25 23.083C21.25 23.7663 20.7 24.333 20 24.333Z" fill="#0098CE"/>
</svg>
