<svg width="40" height="40" viewBox="0 0 40 40" fill="none" xmlns="http://www.w3.org/2000/svg">
<path d="M37.55 35.7833L36.3167 34.55C36.95 33.5833 37.3333 32.4167 37.3333 31.1667C37.3333 27.7667 34.5667 25 31.1667 25C27.7667 25 25 27.7667 25 31.1667C25 34.5667 27.7667 37.3333 31.1667 37.3333C32.4167 37.3333 33.5834 36.95 34.55 36.3167L35.7833 37.55C36.0333 37.8 36.35 37.9167 36.6667 37.9167C36.9833 37.9167 37.3 37.8 37.55 37.55C38.0333 37.0667 38.0333 36.2667 37.55 35.7833Z" fill="#0098CE"/>
<path opacity="0.4" d="M3.33334 21.6163V11.6496C3.33334 7.06628 7.06668 3.34961 11.6667 3.34961H28.3333C32.9333 3.34961 36.6667 7.06628 36.6667 11.6663V23.2996C36.6667 27.8829 32.9333 31.5996 28.3333 31.5996H25.8333C25.3167 31.5996 24.8167 31.8496 24.5 32.2663L22 35.5829C20.9 37.0496 19.1 37.0496 18 35.5829L15.5 32.2663C15.2167 31.8996 14.6333 31.5996 14.1667 31.5996H11.6667C7.06668 31.5996 3.33334 27.8829 3.33334 23.2996V21.6163Z" fill="#0098CE"/>
<path d="M20 19.9993C19.0667 19.9993 18.3167 19.2493 18.3167 18.3327C18.3167 17.416 19.0667 16.666 19.9833 16.666C20.9 16.666 21.65 17.416 21.65 18.3327C21.65 19.2493 20.9333 19.9993 20 19.9993Z" fill="#0098CE"/>
<path d="M26.6667 19.9993C25.7334 19.9993 24.9833 19.2493 24.9833 18.3327C24.9833 17.416 25.7333 16.666 26.65 16.666C27.5667 16.666 28.3167 17.416 28.3167 18.3327C28.3167 19.2493 27.6 19.9993 26.6667 19.9993Z" fill="#0098CE"/>
<path d="M13.3333 19.9993C12.4 19.9993 11.65 19.2493 11.65 18.3327C11.65 17.416 12.4 16.666 13.3167 16.666C14.2333 16.666 14.9833 17.416 14.9833 18.3327C14.9833 19.2493 14.2667 19.9993 13.3333 19.9993Z" fill="#0098CE"/>
</svg>
