<svg width="40" height="40" viewBox="0 0 40 40" fill="none" xmlns="http://www.w3.org/2000/svg">
<path opacity="0.4" d="M15.85 7.04974L30.1166 14.1831C36.5166 17.3831 36.5166 22.6164 30.1166 25.8164L15.85 32.9497C6.24995 37.7497 2.33328 33.8164 7.13328 24.2331L8.58328 21.3497C8.99995 20.4997 8.99995 19.5164 8.58328 18.6664L7.13328 15.7664C2.33328 6.18307 6.26662 2.24974 15.85 7.04974Z" fill="#0098CE"/>
<path d="M24.7334 21.25H15.7334C15.0501 21.25 14.4834 20.6833 14.4834 20C14.4834 19.3167 15.0501 18.75 15.7334 18.75H24.7334C25.4167 18.75 25.9834 19.3167 25.9834 20C25.9834 20.6833 25.4167 21.25 24.7334 21.25Z" fill="#0098CE"/>
</svg>
